<?xml version="1.0" standalone="no"?>
<!DOCTYPE svg PUBLIC "-//W3C//DTD SVG 20010904//EN"
 "http://www.w3.org/TR/2001/REC-SVG-20010904/DTD/svg10.dtd">
<svg version="1.0" xmlns="http://www.w3.org/2000/svg"
 width="512.000000pt" height="512.000000pt" viewBox="0 0 512.000000 512.000000"
 preserveAspectRatio="xMidYMid meet">

<g transform="translate(0.000000,512.000000) scale(0.100000,-0.100000)"
fill="#000000" stroke="none">
<path d="M2505 5095 l-25 -24 0 -221 0 -221 25 -24 c15 -16 36 -25 55 -25 19
0 40 9 55 25 l25 24 0 221 0 221 -25 24 c-15 16 -36 25 -55 25 -19 0 -40 -9
-55 -25z"/>
<path d="M1283 4780 c-25 -10 -43 -39 -43 -71 0 -29 206 -386 230 -399 50 -27
120 11 120 64 0 15 -48 108 -106 210 -119 205 -136 222 -201 196z"/>
<path d="M3764 4779 c-28 -14 -234 -370 -234 -404 0 -54 70 -92 120 -65 25 13
230 372 230 402 0 54 -67 92 -116 67z"/>
<path d="M2405 4304 c-172 -20 -335 -58 -465 -108 -850 -329 -1304 -1225
-1065 -2104 100 -363 327 -699 628 -925 870 -654 2113 -372 2611 592 285 552
254 1224 -81 1746 -249 387 -660 672 -1105 765 -167 35 -390 49 -523 34z m355
-168 c362 -49 662 -197 921 -455 231 -232 370 -490 440 -821 33 -152 33 -448
0 -600 -47 -221 -133 -426 -255 -605 -83 -123 -284 -323 -406 -404 -422 -281
-906 -353 -1385 -204 -124 38 -347 153 -455 233 -448 337 -691 871 -642 1415
33 365 181 694 432 958 348 367 856 548 1350 483z"/>
<path d="M2202 3725 c-341 -131 -605 -407 -720 -750 -262 -786 319 -1596 1148
-1598 333 -1 633 123 866 358 89 90 204 253 204 290 0 50 -21 57 -149 49 -539
-31 -1053 317 -1224 828 -78 234 -85 460 -21 698 13 51 22 101 19 110 -4 13
-47 42 -58 40 -1 -1 -30 -12 -65 -25z"/>
<path d="M359 3851 c-34 -35 -36 -59 -9 -94 26 -33 364 -227 396 -227 53 0 91
70 64 120 -13 24 -370 230 -399 230 -12 0 -36 -13 -52 -29z"/>
<path d="M4505 3776 c-98 -58 -185 -112 -192 -122 -37 -51 10 -131 70 -121 18
3 112 51 209 108 193 112 212 131 189 188 -12 28 -47 51 -79 51 -9 0 -98 -47
-197 -104z"/>
<path d="M25 2615 c-16 -15 -25 -36 -25 -55 0 -19 9 -40 25 -55 l24 -25 221 0
221 0 24 25 c33 32 33 78 0 110 l-24 25 -221 0 -221 0 -24 -25z"/>
<path d="M4605 2615 c-16 -15 -25 -36 -25 -55 0 -19 9 -40 25 -55 l24 -25 221
0 221 0 24 25 c16 15 25 36 25 55 0 19 -9 40 -25 55 l-24 25 -221 0 -221 0
-24 -25z"/>
<path d="M700 1577 c-106 -56 -330 -191 -345 -207 -28 -31 -24 -79 9 -107 15
-12 37 -23 48 -23 28 0 386 207 398 230 17 32 11 70 -15 95 -27 28 -58 31 -95
12z"/>
<path d="M4325 1565 c-26 -25 -32 -63 -15 -95 13 -24 370 -230 399 -230 26 0
81 51 81 74 0 44 -27 66 -206 170 -102 58 -195 106 -210 106 -13 0 -36 -11
-49 -25z"/>
<path d="M1468 810 c-24 -15 -228 -372 -228 -401 0 -34 24 -65 56 -73 56 -14
75 5 184 192 114 196 126 236 81 273 -25 20 -66 24 -93 9z"/>
<path d="M3559 801 c-45 -36 -33 -77 81 -273 109 -187 128 -206 184 -192 32 8
56 39 56 73 0 30 -205 388 -230 401 -29 15 -66 12 -91 -9z"/>
<path d="M2505 515 l-25 -24 0 -221 0 -221 25 -24 c32 -33 78 -33 110 0 l25
24 0 221 0 221 -25 24 c-15 16 -36 25 -55 25 -19 0 -40 -9 -55 -25z"/>
</g>
</svg>
